<svg width="36" height="47" viewBox="0 0 36 47" fill="none" xmlns="http://www.w3.org/2000/svg">
<path d="M23.61 17.69H1.78003V46H23.61V17.69Z" stroke="#3A3734" stroke-width="2" stroke-miterlimit="10" stroke-linecap="round" stroke-linejoin="round"/>
<path d="M23.61 24.17H1.78003V36.96H23.61V24.17Z" stroke="#3A3734" stroke-width="2" stroke-miterlimit="10" stroke-linecap="round" stroke-linejoin="round"/>
<path d="M1.78003 17.69L7.11002 6.42001H29.11L23.61 17.19V46H34.61V17.19L29.11 6.42001" stroke="#3A3734" stroke-width="2" stroke-miterlimit="10" stroke-linecap="round" stroke-linejoin="round"/>
<path d="M13.0774 34.04C15.5262 33.3434 17.085 31.2802 16.5592 29.4317C16.0333 27.5831 13.6219 26.6493 11.1732 27.3459C8.7244 28.0425 7.16554 30.1057 7.69139 31.9542C8.21723 33.8028 10.6287 34.7366 13.0774 34.04Z" stroke="#3A3734" stroke-width="2" stroke-miterlimit="10" stroke-linecap="round" stroke-linejoin="round"/>
<path d="M16.4 29.7C16.4 29.7 13.39 29.24 12.29 30.41C11.19 31.58 10.13 31.64 7.62 31.45" stroke="#3A3734" stroke-width="2" stroke-miterlimit="10" stroke-linecap="round" stroke-linejoin="round"/>
<path d="M29.11 1.35001H7.10999V6.41001H29.11V1.35001Z" stroke="#3A3734" stroke-width="2" stroke-miterlimit="10" stroke-linecap="round" stroke-linejoin="round"/>
<path d="M23.61 46L29.11 40.35L34.61 46" stroke="#3A3734" stroke-width="2" stroke-miterlimit="10" stroke-linecap="round" stroke-linejoin="round"/>
<path d="M29.11 7.42001V40.35" stroke="#3A3734" stroke-width="2" stroke-miterlimit="10" stroke-linecap="round" stroke-linejoin="round"/>
</svg>
