<svg width="49" height="47" viewBox="0 0 49 47" fill="none" xmlns="http://www.w3.org/2000/svg">
<path d="M47.26 10.6V7.95999C47.26 4.60999 44.55 1.89999 41.2 1.89999H11.83H1.54001H1.26001V45.94H1.54001H11.83H47.26V43.3C47.26 39.95 44.55 37.24 41.2 37.24H12.83V10.6H47.26Z" stroke="#3A3734" stroke-width="2" stroke-miterlimit="10" stroke-linecap="round" stroke-linejoin="round"/>
<path d="M41.57 23.5C41.57 23.5 45.68 22.97 45.68 27.61C45.68 32.25 39.63 32.55 39.63 32.55" stroke="#3A3734" stroke-width="2" stroke-miterlimit="10" stroke-linecap="round" stroke-linejoin="round"/>
<path d="M34.92 37.23C37.39 35.26 39.19 33.21 39.68 30.23L41.09 21.49H18.09L19.5 30.23C19.99 33.21 21.79 35.27 24.26 37.23" stroke="#3A3734" stroke-width="2" stroke-miterlimit="10" stroke-linecap="round" stroke-linejoin="round"/>
<path d="M35.58 10.6H23.26V13.47H35.58V10.6Z" stroke="#3A3734" stroke-width="2" stroke-miterlimit="10" stroke-linecap="round" stroke-linejoin="round"/>
<path d="M6.91 14.62C8.10294 14.62 9.07001 13.6529 9.07001 12.46C9.07001 11.2671 8.10294 10.3 6.91 10.3C5.71707 10.3 4.75 11.2671 4.75 12.46C4.75 13.6529 5.71707 14.62 6.91 14.62Z" stroke="#3A3734" stroke-width="2" stroke-miterlimit="10" stroke-linecap="round" stroke-linejoin="round"/>
<path d="M6.91 22.62C8.10294 22.62 9.07001 21.6529 9.07001 20.46C9.07001 19.2671 8.10294 18.3 6.91 18.3C5.71707 18.3 4.75 19.2671 4.75 20.46C4.75 21.6529 5.71707 22.62 6.91 22.62Z" stroke="#3A3734" stroke-width="2" stroke-miterlimit="10" stroke-linecap="round" stroke-linejoin="round"/>
</svg>
