<svg width="41" height="49" viewBox="0 0 41 49" fill="none" xmlns="http://www.w3.org/2000/svg">
<path d="M40.0001 44.25H1.33008V47.93H40.0001V44.25Z" stroke="#3A3734" stroke-width="2" stroke-miterlimit="10" stroke-linecap="round" stroke-linejoin="round"/>
<path d="M40.0001 29.97H1.33008C1.33008 27.94 2.98008 26.29 5.01008 26.29H36.3101C38.3501 26.29 40.0001 27.94 40.0001 29.97Z" stroke="#3A3734" stroke-width="2" stroke-miterlimit="10" stroke-linecap="round" stroke-linejoin="round"/>
<path d="M37.9001 29.97H3.43005V44.25H37.9001V29.97Z" stroke="#3A3734" stroke-width="2" stroke-miterlimit="10" stroke-linecap="round" stroke-linejoin="round"/>
<path d="M33.3 32.94H8.02002V41.28H33.3V32.94Z" stroke="#3A3734" stroke-width="2" stroke-miterlimit="10" stroke-linecap="round" stroke-linejoin="round"/>
<path d="M18.8301 37.11H22.3301" stroke="#3A3734" stroke-width="2" stroke-miterlimit="10" stroke-linecap="round" stroke-linejoin="round"/>
<path d="M17.67 26.08H24.66C29.45 24.59 32.93 20.13 32.93 14.85H9.40002C9.40002 20.12 12.88 24.59 17.67 26.08Z" stroke="#3A3734" stroke-width="2" stroke-miterlimit="10" stroke-linecap="round" stroke-linejoin="round"/>
<path d="M21.17 14.85V12.1" stroke="#3A3734" stroke-width="2" stroke-miterlimit="10" stroke-linecap="round" stroke-linejoin="round"/>
<path d="M21.2701 12.1C20.4101 12.1 19.7101 11.4 19.7101 10.54V8.54001C19.7101 7.68001 20.4101 6.98001 21.2701 6.98001C22.1301 6.98001 22.8301 7.68001 22.8301 8.54001V10.54C22.8301 11.39 22.1301 12.1 21.2701 12.1Z" stroke="#3A3734" stroke-width="2" stroke-miterlimit="10" stroke-linecap="round" stroke-linejoin="round"/>
<path d="M37.9001 7.06C37.0401 7.06 36.3401 6.36 36.3401 5.5V3.5C36.3401 2.64 37.0401 1.94 37.9001 1.94C38.7601 1.94 39.4601 2.64 39.4601 3.5V5.5C39.4601 6.36 38.7601 7.06 37.9001 7.06Z" stroke="#3A3734" stroke-width="2" stroke-miterlimit="10" stroke-linecap="round" stroke-linejoin="round"/>
<path d="M22.8301 9.53L25.9601 6.97L37.9001 7.06" stroke="#3A3734" stroke-width="2" stroke-miterlimit="10" stroke-linecap="round" stroke-linejoin="round"/>
</svg>
