<svg width="36" height="50" viewBox="0 0 36 50" fill="none" xmlns="http://www.w3.org/2000/svg">
<path d="M28.1599 48.11H7.18994L3.18994 12.64H32.1599L28.1599 48.11Z" stroke="#3A3734" stroke-width="2" stroke-miterlimit="10" stroke-linecap="round" stroke-linejoin="round"/>
<path d="M34.1599 7.63998H1.15991V12.64H34.1599V7.63998Z" stroke="#3A3734" stroke-width="2" stroke-miterlimit="10" stroke-linecap="round" stroke-linejoin="round"/>
<path d="M30.1599 1.97998H5.15991L3.15991 7.63998H32.1599L30.1599 1.97998Z" stroke="#3A3734" stroke-width="2" stroke-miterlimit="10" stroke-linecap="round" stroke-linejoin="round"/>
<path d="M21.4426 30.2839C23.4431 27.6422 23.448 24.2763 21.4535 22.7659C19.459 21.2556 16.2205 22.1727 14.22 24.8144C12.2195 27.4561 12.2146 30.822 14.2091 32.3323C16.2036 33.8427 19.4421 32.9256 21.4426 30.2839Z" stroke="#3A3734" stroke-width="2" stroke-miterlimit="10" stroke-linecap="round" stroke-linejoin="round"/>
<path d="M21.47 23.18C21.47 23.18 17.98 25.07 17.75 27.14C17.52 29.21 16.46 30.11 13.71 31.88" stroke="#3A3734" stroke-width="2" stroke-miterlimit="10" stroke-linecap="round" stroke-linejoin="round"/>
</svg>
