<svg width="47" height="49" viewBox="0 0 47 49" fill="none" xmlns="http://www.w3.org/2000/svg">
<path d="M35.75 17.64C35.75 17.64 45.08 15.47 45.08 23.47C45.08 28.93 35.75 33.8 35.75 33.8" stroke="#3A3734" stroke-width="2" stroke-miterlimit="10" stroke-linecap="round" stroke-linejoin="round"/>
<path d="M29.09 1.79999C30.23 3.14999 30.31 5.08998 29.3 6.52998C28.32 7.91998 28.36 9.77999 29.4 11.12" stroke="#3A3734" stroke-width="2" stroke-miterlimit="10" stroke-linecap="round" stroke-linejoin="round"/>
<path d="M21.12 1.79999C22.26 3.14999 22.34 5.08998 21.33 6.52998C20.35 7.91998 20.39 9.77999 21.43 11.12" stroke="#3A3734" stroke-width="2" stroke-miterlimit="10" stroke-linecap="round" stroke-linejoin="round"/>
<path d="M13.16 1.79999C14.3 3.14999 14.38 5.08998 13.37 6.52998C12.39 7.91998 12.43 9.77999 13.47 11.12" stroke="#3A3734" stroke-width="2" stroke-miterlimit="10" stroke-linecap="round" stroke-linejoin="round"/>
<path d="M31.75 47.6H13.39C8.94997 47.6 4.66997 46.11 1.46997 43.45H43.68C40.47 46.11 36.2 47.6 31.75 47.6Z" stroke="#3A3734" stroke-width="2" stroke-miterlimit="10" stroke-linecap="round" stroke-linejoin="round"/>
<path d="M27.67 43.45C28.96 43.45 30.2 42.84 31.31 41.98C34.2 39.74 35.75 36.25 35.75 32.67V14.3H21.75H7.75V32.66C7.75 36.24 9.3 39.74 12.19 41.97C13.3 42.83 14.54 43.44 15.83 43.44" stroke="#3A3734" stroke-width="2" stroke-miterlimit="10" stroke-linecap="round" stroke-linejoin="round"/>
</svg>
