<svg width="44" height="42" viewBox="0 0 44 42" fill="none" xmlns="http://www.w3.org/2000/svg">
<path d="M16.67 1.97H1.75V30.64C1.75 30.64 1.85001 32.75 2.79001 35.15C4.08001 38.48 7.37 40.6 10.94 40.6H17.34" stroke="#3A3734" stroke-width="2" stroke-miterlimit="10" stroke-linecap="round" stroke-linejoin="round"/>
<path d="M16.67 1.97H31.59V30.64C31.59 30.64 31.49 32.75 30.55 35.15C29.26 38.48 25.97 40.6 22.4 40.6H16" stroke="#3A3734" stroke-width="2" stroke-miterlimit="10" stroke-linecap="round" stroke-linejoin="round"/>
<path d="M37.76 6.30001C35.97 6.30001 33.76 6.17 31.59 6.22V10.15C32.91 10.12 34.24 10.21 35.33 10.21C38.74 10.21 38.42 13.75 38.42 18.12C38.42 22.49 35.66 26.03 32.25 26.03C32.03 26.03 31.81 25.99 31.6 25.93V29.78C31.98 29.89 32.37 29.96 32.77 29.96C38.29 29.96 42.77 24.66 42.77 18.13C42.76 11.6 43.28 6.30001 37.76 6.30001Z" stroke="#3A3734" stroke-width="2" stroke-miterlimit="10" stroke-linecap="round" stroke-linejoin="round"/>
<path d="M31.59 18.22H1.76001V29.97H31.59V18.22Z" stroke="#3A3734" stroke-width="2" stroke-miterlimit="10" stroke-linecap="round" stroke-linejoin="round"/>
<path d="M31.59 22.08H1.76001V26.11H31.59V22.08Z" stroke="#3A3734" stroke-width="2" stroke-miterlimit="10" stroke-linecap="round" stroke-linejoin="round"/>
</svg>
