<svg width="39" height="50" viewBox="0 0 39 50" fill="none" xmlns="http://www.w3.org/2000/svg">
<path d="M1.26001 49H25.01L28.26 10.44H4.76001L1.26001 49Z" stroke="#3A3734" stroke-width="2" stroke-miterlimit="10" stroke-linecap="round" stroke-linejoin="round"/>
<path d="M25.01 49H34.76L28.26 10.44" stroke="#3A3734" stroke-width="2" stroke-miterlimit="10" stroke-linecap="round" stroke-linejoin="round"/>
<path d="M4.76001 10.44L7.85001 4.35001H31.18L28.26 11.17" stroke="#3A3734" stroke-width="2" stroke-miterlimit="10" stroke-linecap="round" stroke-linejoin="round"/>
<path d="M7.84998 4.35L12.68 1H36.26L31.18 4.35" stroke="#3A3734" stroke-width="2" stroke-miterlimit="10" stroke-linecap="round" stroke-linejoin="round"/>
<path d="M36.26 1L37.26 6.19L34.1 8.94H29.89" stroke="#3A3734" stroke-width="2" stroke-miterlimit="10" stroke-linecap="round" stroke-linejoin="round"/>
<path d="M37.26 6.19H30.4" stroke="#3A3734" stroke-width="2" stroke-miterlimit="10" stroke-linecap="round" stroke-linejoin="round"/>
<path d="M16.4223 33.3747C17.1816 31.6331 15.9298 29.407 13.6262 28.4026C11.3227 27.3982 8.83966 27.9958 8.08029 29.7374C7.32092 31.479 8.57274 33.7051 10.8763 34.7095C13.1799 35.7139 15.6629 35.1163 16.4223 33.3747Z" stroke="#3A3734" stroke-width="2" stroke-miterlimit="10" stroke-linecap="round" stroke-linejoin="round"/>
<path d="M8.37 29.67C8.37 29.67 10.38 31.91 11.95 31.71C13.52 31.51 14.37 32.13 16.16 33.85" stroke="#3A3734" stroke-width="2" stroke-miterlimit="10" stroke-linecap="round" stroke-linejoin="round"/>
<path d="M13.2001 28.17C13.2201 26.48 14.8501 25.04 17.1001 24.62C19.5701 24.17 21.8601 25.31 22.2001 27.18C22.5401 29.05 20.8201 30.93 18.3401 31.38C17.7201 31.49 17.12 31.51 16.55 31.43" stroke="#3A3734" stroke-width="2" stroke-miterlimit="10" stroke-linecap="round" stroke-linejoin="round"/>
<path d="M22.0001 27.42C22.0001 27.42 19.0801 26.69 17.8901 27.73C16.7001 28.77 15.7601 28.72 13.3201 28.3" stroke="#3A3734" stroke-width="2" stroke-miterlimit="10" stroke-linecap="round" stroke-linejoin="round"/>
</svg>
