<svg width="48" height="49" viewBox="0 0 48 49" fill="none" xmlns="http://www.w3.org/2000/svg">
<path d="M40.06 21.99C40.06 21.99 46.33 21.19 46.33 28.26C46.33 35.34 37.11 35.8 37.11 35.8" stroke="#3A3734" stroke-width="2" stroke-miterlimit="10" stroke-linecap="round" stroke-linejoin="round"/>
<path d="M28.6201 1.79999C29.7601 3.14999 29.8401 5.08998 28.8301 6.52998C27.8501 7.91998 27.8901 9.77999 28.9301 11.12" stroke="#3A3734" stroke-width="2" stroke-miterlimit="10" stroke-linecap="round" stroke-linejoin="round"/>
<path d="M20.65 1.79999C21.79 3.14999 21.87 5.08998 20.86 6.52998C19.88 7.91998 19.92 9.77999 20.96 11.12" stroke="#3A3734" stroke-width="2" stroke-miterlimit="10" stroke-linecap="round" stroke-linejoin="round"/>
<path d="M12.6901 1.79999C13.8301 3.14999 13.9101 5.08998 12.9001 6.52998C11.9201 7.91998 11.9601 9.77999 13.0001 11.12" stroke="#3A3734" stroke-width="2" stroke-miterlimit="10" stroke-linecap="round" stroke-linejoin="round"/>
<path d="M31.29 47.6H12.93C8.49 47.6 4.21 46.11 1 43.45H43.21C40 46.11 35.73 47.6 31.29 47.6Z" stroke="#3A3734" stroke-width="2" stroke-miterlimit="10" stroke-linecap="round" stroke-linejoin="round"/>
<path d="M29.93 42.93C33.69 39.93 36.45 36.8 37.19 32.25L39.34 18.93H4.26001L6.41001 32.25C7.15001 36.8 9.91001 39.93 13.67 42.93" stroke="#3A3734" stroke-width="2" stroke-miterlimit="10" stroke-linecap="round" stroke-linejoin="round"/>
</svg>
