<svg width="48" height="48" viewBox="0 0 48 48" fill="none" xmlns="http://www.w3.org/2000/svg">
<path d="M37.17 19.64C37.17 19.64 46.5 17.47 46.5 25.47C46.5 30.93 37.17 35.8 37.17 35.8" stroke="#3A3734" stroke-width="2" stroke-miterlimit="10" stroke-linecap="round" stroke-linejoin="round"/>
<path d="M32.17 46.6H13.81C9.37 46.6 5.09001 45.11 1.89001 42.45H44.1C40.89 45.11 36.62 46.6 32.17 46.6Z" stroke="#3A3734" stroke-width="2" stroke-miterlimit="10" stroke-linecap="round" stroke-linejoin="round"/>
<path d="M22.13 16.3H7.09998V34.66C7.09998 38.24 8.11997 40.21 11.22 42.44" stroke="#3A3734" stroke-width="2" stroke-miterlimit="10" stroke-linecap="round" stroke-linejoin="round"/>
<path d="M22.13 16.3H37.16V34.66C37.16 38.24 36.14 40.21 33.04 42.44" stroke="#3A3734" stroke-width="2" stroke-miterlimit="10" stroke-linecap="round" stroke-linejoin="round"/>
<path d="M16.97 16.3V21.97" stroke="#3A3734" stroke-width="2" stroke-miterlimit="10" stroke-linecap="round" stroke-linejoin="round"/>
<path d="M16.97 33.22H13.6V26.47L16.97 22.6" stroke="#3A3734" stroke-width="2" stroke-miterlimit="10" stroke-linecap="round" stroke-linejoin="round"/>
<path d="M16.97 33.22H20.35V26.47L16.97 22.6" stroke="#3A3734" stroke-width="2" stroke-miterlimit="10" stroke-linecap="round" stroke-linejoin="round"/>
<path d="M25.6899 16.3C25.6899 16.3 32.9799 -1.66999 37.7199 1.69001C41.8299 4.59001 32.3399 8.26001 29.0999 16.3" stroke="#3A3734" stroke-width="2" stroke-miterlimit="10" stroke-linecap="round" stroke-linejoin="round"/>
</svg>
