<svg width="42" height="49" viewBox="0 0 42 49" fill="none" xmlns="http://www.w3.org/2000/svg">
<path d="M40.6099 44.25H1.93994V47.93H40.6099V44.25Z" stroke="#3A3734" stroke-width="2" stroke-miterlimit="10" stroke-linecap="round" stroke-linejoin="round"/>
<path d="M40.6099 29.97H1.93994C1.93994 27.94 3.58993 26.29 5.61993 26.29H36.9199C38.9599 26.29 40.6099 27.94 40.6099 29.97Z" stroke="#3A3734" stroke-width="2" stroke-miterlimit="10" stroke-linecap="round" stroke-linejoin="round"/>
<path d="M38.5099 29.97H4.03992V44.25H38.5099V29.97Z" stroke="#3A3734" stroke-width="2" stroke-miterlimit="10" stroke-linecap="round" stroke-linejoin="round"/>
<path d="M33.9199 32.94H8.63989V41.28H33.9199V32.94Z" stroke="#3A3734" stroke-width="2" stroke-miterlimit="10" stroke-linecap="round" stroke-linejoin="round"/>
<path d="M19.4399 37.11H22.9399" stroke="#3A3734" stroke-width="2" stroke-miterlimit="10" stroke-linecap="round" stroke-linejoin="round"/>
<path d="M25.3799 17.6H18.1599C13.2199 18.72 9.62988 22.1 9.62988 26.08H33.9099C33.9199 22.09 30.3299 18.72 25.3799 17.6Z" stroke="#3A3734" stroke-width="2" stroke-miterlimit="10" stroke-linecap="round" stroke-linejoin="round"/>
<path d="M21.7799 14.85V12.1" stroke="#3A3734" stroke-width="2" stroke-miterlimit="10" stroke-linecap="round" stroke-linejoin="round"/>
<path d="M21.8799 12.1C21.0199 12.1 20.3199 11.4 20.3199 10.54V8.54001C20.3199 7.68001 21.0199 6.98001 21.8799 6.98001C22.7399 6.98001 23.4399 7.68001 23.4399 8.54001V10.54C23.4399 11.39 22.7399 12.1 21.8799 12.1Z" stroke="#3A3734" stroke-width="2" stroke-miterlimit="10" stroke-linecap="round" stroke-linejoin="round"/>
<path d="M38.5099 7.06C37.6499 7.06 36.95 6.36 36.95 5.5V3.5C36.95 2.64 37.6499 1.94 38.5099 1.94C39.3699 1.94 40.07 2.64 40.07 3.5V5.5C40.07 6.36 39.3699 7.06 38.5099 7.06Z" stroke="#3A3734" stroke-width="2" stroke-miterlimit="10" stroke-linecap="round" stroke-linejoin="round"/>
<path d="M23.4399 9.53L26.5699 6.97L38.5099 7.06" stroke="#3A3734" stroke-width="2" stroke-miterlimit="10" stroke-linecap="round" stroke-linejoin="round"/>
<path d="M25.2399 14.85H18.1699V17.6H25.2399V14.85Z" stroke="#3A3734" stroke-width="2" stroke-miterlimit="10" stroke-linecap="round" stroke-linejoin="round"/>
</svg>
