<svg width="48" height="45" viewBox="0 0 48 45" fill="none" xmlns="http://www.w3.org/2000/svg">
<path d="M31.8 11.1H7.55005V14.98H31.8V11.1Z" stroke="#3A3734" stroke-width="2" stroke-miterlimit="10" stroke-linecap="round" stroke-linejoin="round"/>
<path d="M31.8 14.98H7.65999C3.65999 18.4 1.10999 23.47 1.10999 29.15C1.10999 34.94 3.74998 40.11 7.88998 43.53H31.57C35.71 40.11 38.35 34.94 38.35 29.15C38.36 23.47 35.81 18.4 31.8 14.98Z" stroke="#3A3734" stroke-width="2" stroke-miterlimit="10" stroke-linecap="round" stroke-linejoin="round"/>
<path d="M31.8 11.1H38.67C42.87 11.1 46.28 14.51 46.28 18.71V27.4C46.28 28.42 45.45 29.25 44.43 29.25C43.41 29.25 42.58 28.42 42.58 27.4V18.61C42.58 16.61 40.96 14.98 38.95 14.98H31.81" stroke="#3A3734" stroke-width="2" stroke-miterlimit="10" stroke-linecap="round" stroke-linejoin="round"/>
<path d="M7.64003 11.1C7.36003 10.47 4.78003 1.48999 4.78003 1.48999L31.8 7.20999V11.09" stroke="#3A3734" stroke-width="2" stroke-miterlimit="10" stroke-linecap="round" stroke-linejoin="round"/>
<path d="M1.34998 26.19H38.21" stroke="#3A3734" stroke-width="2" stroke-miterlimit="10" stroke-linecap="round" stroke-linejoin="round"/>
</svg>
