<svg width="38" height="46" viewBox="0 0 38 46" fill="none" xmlns="http://www.w3.org/2000/svg">
<path d="M30.87 44.94H7.52001C5.88001 44.94 4.52002 43.67 4.41002 42.03L1.94002 4.85001C1.82002 3.05001 3.25001 1.53 5.05001 1.53H33.34C35.14 1.53 36.57 3.05001 36.45 4.85001L33.98 42.03C33.87 43.66 32.51 44.94 30.87 44.94Z" stroke="#3A3734" stroke-width="2" stroke-miterlimit="10" stroke-linecap="round" stroke-linejoin="round"/>
<path d="M4.33008 38.96H34.1801" stroke="#3A3734" stroke-width="2" stroke-miterlimit="10" stroke-linecap="round" stroke-linejoin="round"/>
<path d="M3.43005 16.81H34.9501" stroke="#3A3734" stroke-width="2" stroke-miterlimit="10" stroke-linecap="round" stroke-linejoin="round"/>
<path d="M27.1601 8.94H11.1901V16.99H27.1601V8.94Z" stroke="#3A3734" stroke-width="2" stroke-miterlimit="10" stroke-linecap="round" stroke-linejoin="round"/>
<path d="M24.89 16.99H13.46V19.98H24.89V16.99Z" stroke="#3A3734" stroke-width="2" stroke-miterlimit="10" stroke-linecap="round" stroke-linejoin="round"/>
<path d="M20.64 19.98H17.71V22.68H20.64V19.98Z" stroke="#3A3734" stroke-width="2" stroke-miterlimit="10" stroke-linecap="round" stroke-linejoin="round"/>
<path d="M27.22 29.66C27.22 29.66 29.92 29.31 29.92 32.36C29.92 35.4 25.96 35.6 25.96 35.6" stroke="#3A3734" stroke-width="2" stroke-miterlimit="10" stroke-linecap="round" stroke-linejoin="round"/>
<path d="M22.8601 38.66C24.4801 37.37 25.6601 36.02 25.9801 34.07L26.9001 28.34H11.8301L12.7501 34.07C13.0701 36.02 14.2501 37.37 15.8701 38.66" stroke="#3A3734" stroke-width="2" stroke-miterlimit="10" stroke-linecap="round" stroke-linejoin="round"/>
</svg>
