<svg width="36" height="50" viewBox="0 0 36 50" fill="none" xmlns="http://www.w3.org/2000/svg">
<path d="M28.19 48.11H7.21997L3.21997 12.64H32.19L28.19 48.11Z" stroke="#3A3734" stroke-width="2" stroke-miterlimit="10" stroke-linecap="round" stroke-linejoin="round"/>
<path d="M34.1899 7.63998H1.18994V12.64H34.1899V7.63998Z" stroke="#3A3734" stroke-width="2" stroke-miterlimit="10" stroke-linecap="round" stroke-linejoin="round"/>
<path d="M30.1899 3.97998L5.18994 1.97998L3.18994 7.63998H32.1899L30.1899 3.97998Z" stroke="#3A3734" stroke-width="2" stroke-miterlimit="10" stroke-linecap="round" stroke-linejoin="round"/>
<path d="M21.3209 30.2818C23.3214 27.6401 23.3263 24.2742 21.3318 22.7638C19.3373 21.2534 16.0988 22.1706 14.0983 24.8122C12.0978 27.4539 12.0929 30.8198 14.0874 32.3302C16.0819 33.8406 19.3204 32.9235 21.3209 30.2818Z" stroke="#3A3734" stroke-width="2" stroke-miterlimit="10" stroke-linecap="round" stroke-linejoin="round"/>
<path d="M21.35 23.18C21.35 23.18 17.86 25.07 17.63 27.14C17.4 29.21 16.34 30.11 13.59 31.88" stroke="#3A3734" stroke-width="2" stroke-miterlimit="10" stroke-linecap="round" stroke-linejoin="round"/>
</svg>
