<svg width="47" height="49" viewBox="0 0 47 49" fill="none" xmlns="http://www.w3.org/2000/svg">
<path d="M17.8154 43.5424C18.0146 40.8325 15.2648 38.4217 11.6736 38.1578C8.08245 37.8938 5.00976 39.8767 4.81059 42.5866C4.61141 45.2965 7.36117 47.7073 10.9523 47.9712C14.5435 48.2352 17.6162 46.2523 17.8154 43.5424Z" stroke="#3A3734" stroke-width="2" stroke-miterlimit="10" stroke-linecap="round" stroke-linejoin="round"/>
<path d="M5.19006 42.33C5.19006 42.33 8.97007 44.4 10.9901 43.38C13.0201 42.37 14.4501 42.8 17.6901 44.27" stroke="#3A3734" stroke-width="2" stroke-miterlimit="10" stroke-linecap="round" stroke-linejoin="round"/>
<path d="M10.9901 38.02C10.2201 35.73 11.7401 33 14.5801 31.38C17.7101 29.59 21.3301 30.06 22.6801 32.42C24.0301 34.78 22.5901 38.14 19.4601 39.93C18.6801 40.38 17.8701 40.68 17.0701 40.85" stroke="#3A3734" stroke-width="2" stroke-miterlimit="10" stroke-linecap="round" stroke-linejoin="round"/>
<path d="M22.5201 32.83C22.5201 32.83 18.2301 33.23 17.1201 35.2C16.0101 37.17 14.7201 37.54 11.2101 38.14" stroke="#3A3734" stroke-width="2" stroke-miterlimit="10" stroke-linecap="round" stroke-linejoin="round"/>
<path d="M10.1404 35.0351C13.017 33.3905 14.3424 30.2967 13.1007 28.1248C11.8591 25.953 8.52053 25.5256 5.6439 27.1701C2.76727 28.8147 1.44187 31.9086 2.68354 34.0804C3.92521 36.2523 7.26375 36.6797 10.1404 35.0351Z" stroke="#3A3734" stroke-width="2" stroke-miterlimit="10" stroke-linecap="round" stroke-linejoin="round"/>
<path d="M12.96 28.51C12.96 28.51 9.01004 28.87 7.99004 30.69C6.96004 32.51 5.64003 32.92 2.41003 33.46" stroke="#3A3734" stroke-width="2" stroke-miterlimit="10" stroke-linecap="round" stroke-linejoin="round"/>
<path d="M7.77025 21.8612C11.0651 21.5069 13.5192 19.2032 13.2518 16.7156C12.9843 14.228 10.0966 12.4986 6.80174 12.8528C3.50692 13.207 1.05275 15.5108 1.32019 17.9984C1.58764 20.486 4.47543 22.2154 7.77025 21.8612Z" stroke="#3A3734" stroke-width="2" stroke-miterlimit="10" stroke-linecap="round" stroke-linejoin="round"/>
<path d="M12.9599 17.01C12.9599 17.01 9.19994 15.76 7.52994 17.02C5.85994 18.27 4.48994 18.12 1.30994 17.33" stroke="#3A3734" stroke-width="2" stroke-miterlimit="10" stroke-linecap="round" stroke-linejoin="round"/>
<path d="M41.0459 43.5759C43.0464 40.9342 43.0512 37.5683 41.0568 36.0579C39.0623 34.5476 35.8237 35.4647 33.8232 38.1064C31.8228 40.7481 31.8179 44.114 33.8124 45.6243C35.8068 47.1347 39.0454 46.2176 41.0459 43.5759Z" stroke="#3A3734" stroke-width="2" stroke-miterlimit="10" stroke-linecap="round" stroke-linejoin="round"/>
<path d="M41.0799 36.47C41.0799 36.47 37.5899 38.36 37.3599 40.43C37.1299 42.5 36.0699 43.4 33.3199 45.17" stroke="#3A3734" stroke-width="2" stroke-miterlimit="10" stroke-linecap="round" stroke-linejoin="round"/>
<path d="M5.80005 35.99L9.29004 38.32" stroke="#3A3734" stroke-width="2" stroke-miterlimit="10" stroke-linecap="round" stroke-linejoin="round"/>
<path d="M17.7601 43.97L22.2901 47L37.7201 29.24C41.3901 23.75 40.1801 17.69 34.6901 14.02L34.1401 13.65C28.6501 9.98002 21.1601 11.48 17.5001 16.97L11.3201 26.22" stroke="#3A3734" stroke-width="2" stroke-miterlimit="10" stroke-linecap="round" stroke-linejoin="round"/>
<path d="M5.80005 35.99L9.29004 38.32" stroke="#3A3734" stroke-width="2" stroke-miterlimit="10" stroke-linecap="round" stroke-linejoin="round"/>
<path d="M18.2001 44.27L21.6201 46.55L31.5901 31.62C34.5401 27.2 33.3401 21.18 28.9201 18.23L28.4701 17.93C24.0501 14.98 18.0301 16.18 15.0801 20.6L11.3201 26.23" stroke="#3A3734" stroke-width="2" stroke-miterlimit="10" stroke-linecap="round" stroke-linejoin="round"/>
<path d="M36.7 15.46C36.7 15.46 44.2 9.06001 45.05 6.43001C45.9 3.80001 43.82 2.42001 43.82 2.42001C43.82 2.42001 41.89 0.850008 39.63 2.44001C37.37 4.03001 33.5 13.1 33.5 13.1" stroke="#3A3734" stroke-width="2" stroke-miterlimit="10" stroke-linecap="round" stroke-linejoin="round"/>
</svg>
