<svg width="47" height="52" viewBox="0 0 47 52" fill="none" xmlns="http://www.w3.org/2000/svg">
<path d="M28.7172 42.6693C30.9401 37.571 27.2671 31.0509 20.5134 28.1061C13.7596 25.1613 6.48253 26.907 4.2596 32.0053C2.03666 37.1035 5.70963 43.6237 12.4634 46.5684C19.2172 49.5132 26.4942 47.7675 28.7172 42.6693Z" stroke="#3A3734" stroke-width="2" stroke-miterlimit="10" stroke-linecap="round" stroke-linejoin="round"/>
<path d="M5.15002 31.76C5.15002 31.76 11.04 38.31 15.64 37.73C20.24 37.15 22.72 38.96 27.98 43.98" stroke="#3A3734" stroke-width="2" stroke-miterlimit="10" stroke-linecap="round" stroke-linejoin="round"/>
<path d="M19.29 27.37C19.36 22.42 24.13 18.19 30.72 16.98C37.97 15.65 44.65 19.01 45.66 24.48C46.67 29.95 41.61 35.46 34.36 36.79C32.55 37.12 30.77 37.16 29.11 36.95" stroke="#3A3734" stroke-width="2" stroke-miterlimit="10" stroke-linecap="round" stroke-linejoin="round"/>
<path d="M45.05 25.18C45.05 25.18 36.5 23.04 33.02 26.09C29.53 29.14 26.79 28.98 19.62 27.75" stroke="#3A3734" stroke-width="2" stroke-miterlimit="10" stroke-linecap="round" stroke-linejoin="round"/>
<path d="M19.6888 21.0254C26.3596 19.8006 31.0178 14.7254 30.0932 9.6897C29.1686 4.65398 23.0113 1.56466 16.3404 2.7895C9.66962 4.01433 5.01139 9.08952 5.936 14.1252C6.86062 19.161 13.0179 22.2503 19.6888 21.0254Z" stroke="#3A3734" stroke-width="2" stroke-miterlimit="10" stroke-linecap="round" stroke-linejoin="round"/>
<path d="M29.5401 10.34C29.5401 10.34 21.6701 8.36999 18.4601 11.18C15.2501 13.99 12.4201 13.88 5.82007 12.75" stroke="#3A3734" stroke-width="2" stroke-miterlimit="10" stroke-linecap="round" stroke-linejoin="round"/>
</svg>
