<svg width="48" height="49" viewBox="0 0 48 49" fill="none" xmlns="http://www.w3.org/2000/svg">
<path d="M40.09 21.99C40.09 21.99 46.3501 20.47 46.3501 26.3C46.3501 33.38 35.17 36.53 35.17 36.53" stroke="#3A3734" stroke-width="2" stroke-miterlimit="10" stroke-linecap="round" stroke-linejoin="round"/>
<path d="M28.6501 1.79999C29.7901 3.14999 29.8701 5.08998 28.8601 6.52998C27.8801 7.91998 27.9201 9.77999 28.9601 11.12" stroke="#3A3734" stroke-width="2" stroke-miterlimit="10" stroke-linecap="round" stroke-linejoin="round"/>
<path d="M20.6901 1.79999C21.8301 3.14999 21.9101 5.08998 20.9001 6.52998C19.9201 7.91998 19.9601 9.77999 21.0001 11.12" stroke="#3A3734" stroke-width="2" stroke-miterlimit="10" stroke-linecap="round" stroke-linejoin="round"/>
<path d="M12.7201 1.79999C13.8601 3.14999 13.9401 5.08998 12.9301 6.52998C11.9501 7.91998 11.9901 9.77999 13.0301 11.12" stroke="#3A3734" stroke-width="2" stroke-miterlimit="10" stroke-linecap="round" stroke-linejoin="round"/>
<path d="M31.32 47.6H12.96C8.52004 47.6 4.24004 46.11 1.04004 43.45H43.25C40.04 46.11 35.76 47.6 31.32 47.6Z" stroke="#3A3734" stroke-width="2" stroke-miterlimit="10" stroke-linecap="round" stroke-linejoin="round"/>
<path d="M21.6 19.8H3.68999C3.68999 19.8 1.68998 38.2 17.86 43.45" stroke="#3A3734" stroke-width="2" stroke-miterlimit="10" stroke-linecap="round" stroke-linejoin="round"/>
<path d="M21.6001 19.8H39.5101C39.5101 19.8 41.5101 38.2 25.3401 43.45" stroke="#3A3734" stroke-width="2" stroke-miterlimit="10" stroke-linecap="round" stroke-linejoin="round"/>
</svg>
