<svg width="39" height="50" viewBox="0 0 39 50" fill="none" xmlns="http://www.w3.org/2000/svg">
<path d="M17.22 27.4V48.52H9.23999L12.23 27.4H17.22Z" stroke="#3A3734" stroke-width="2" stroke-miterlimit="10" stroke-linecap="round" stroke-linejoin="round"/>
<path d="M12.23 27.4H8.62997L3.65997 45.45C3.30997 47.02 4.44997 48.52 5.99997 48.52H9.23996" stroke="#3A3734" stroke-width="2" stroke-miterlimit="10" stroke-linecap="round" stroke-linejoin="round"/>
<path d="M17.22 27.4V48.52H25.2L22.21 27.4H17.22Z" stroke="#3A3734" stroke-width="2" stroke-miterlimit="10" stroke-linecap="round" stroke-linejoin="round"/>
<path d="M22.21 27.4H25.81L30.78 45.45C31.13 47.02 29.99 48.52 28.44 48.52H25.2" stroke="#3A3734" stroke-width="2" stroke-miterlimit="10" stroke-linecap="round" stroke-linejoin="round"/>
<path d="M25.21 23.97H9.26001V27.4H25.21V23.97Z" stroke="#3A3734" stroke-width="2" stroke-miterlimit="10" stroke-linecap="round" stroke-linejoin="round"/>
<path d="M17.45 23.97V8.85001H11.09L12.34 23.97" stroke="#3A3734" stroke-width="2" stroke-miterlimit="10" stroke-linecap="round" stroke-linejoin="round"/>
<path d="M8.64993 23.97L5.92993 8.85001H11.0899" stroke="#3A3734" stroke-width="2" stroke-miterlimit="10" stroke-linecap="round" stroke-linejoin="round"/>
<path d="M7.29001 16.91C2.65001 14.49 1.01001 8.85001 1.01001 8.85001H5.92999C5.92999 8.85001 13.08 4.53 17.47 4.53" stroke="#3A3734" stroke-width="2" stroke-miterlimit="10" stroke-linecap="round" stroke-linejoin="round"/>
<path d="M17.49 23.97V8.85001H23.85L22.61 23.97" stroke="#3A3734" stroke-width="2" stroke-miterlimit="10" stroke-linecap="round" stroke-linejoin="round"/>
<path d="M26.29 23.97L29.02 8.85001H23.85" stroke="#3A3734" stroke-width="2" stroke-miterlimit="10" stroke-linecap="round" stroke-linejoin="round"/>
<path d="M29.02 8.85001C29.02 8.85001 21.87 4.53 17.48 4.53" stroke="#3A3734" stroke-width="2" stroke-miterlimit="10" stroke-linecap="round" stroke-linejoin="round"/>
<path d="M15.64 4C15.64 2.63 16.48 1.53 17.52 1.53C18.56 1.53 19.4 2.64 19.4 4" stroke="#3A3734" stroke-width="2" stroke-miterlimit="10" stroke-linecap="round" stroke-linejoin="round"/>
<path d="M29.02 10.72H30.84C34.53 10.72 37.52 13.71 37.52 17.4V27.48C37.52 28.31 36.85 28.98 36.02 28.98C35.19 28.98 34.52 28.31 34.52 27.48V17.23C34.52 15.37 33.01 13.86 31.15 13.86H28.29" stroke="#3A3734" stroke-width="2" stroke-miterlimit="10" stroke-linecap="round" stroke-linejoin="round"/>
</svg>
