<svg width="47" height="50" viewBox="0 0 47 50" fill="none" xmlns="http://www.w3.org/2000/svg">
<path d="M45.44 8.70001C38.19 10.39 17.98 24.17 14.42 37.1" stroke="#3A3734" stroke-width="2" stroke-miterlimit="10" stroke-linecap="round" stroke-linejoin="round"/>
<path d="M12.44 49C15.7261 49 18.39 46.3361 18.39 43.05C18.39 39.7639 15.7261 37.1 12.44 37.1C9.1539 37.1 6.48999 39.7639 6.48999 43.05C6.48999 46.3361 9.1539 49 12.44 49Z" stroke="#3A3734" stroke-width="2" stroke-miterlimit="10" stroke-linecap="round" stroke-linejoin="round"/>
<path d="M9.60999 44.17C9.60999 44.17 12.21 43.83 12.21 46.13" stroke="#3A3734" stroke-width="2" stroke-miterlimit="10" stroke-linecap="round" stroke-linejoin="round"/>
<path d="M25.8901 43.05C29.1762 43.05 31.8401 40.3861 31.8401 37.1C31.8401 33.8139 29.1762 31.15 25.8901 31.15C22.604 31.15 19.9401 33.8139 19.9401 37.1C19.9401 40.3861 22.604 43.05 25.8901 43.05Z" stroke="#3A3734" stroke-width="2" stroke-miterlimit="10" stroke-linecap="round" stroke-linejoin="round"/>
<path d="M25.0801 40.03C25.0801 40.03 26.3801 37.75 28.2101 39.13" stroke="#3A3734" stroke-width="2" stroke-miterlimit="10" stroke-linecap="round" stroke-linejoin="round"/>
<path d="M7.84001 33.89C11.1261 33.89 13.79 31.2261 13.79 27.94C13.79 24.6539 11.1261 21.99 7.84001 21.99C4.55392 21.99 1.89001 24.6539 1.89001 27.94C1.89001 31.2261 4.55392 33.89 7.84001 33.89Z" stroke="#3A3734" stroke-width="2" stroke-miterlimit="10" stroke-linecap="round" stroke-linejoin="round"/>
<path d="M4.80005 27.77C4.80005 27.77 7.31005 28.55 6.34005 30.64" stroke="#3A3734" stroke-width="2" stroke-miterlimit="10" stroke-linecap="round" stroke-linejoin="round"/>
<path d="M13.6 26.46C13.6 26.46 16.9 24.78 20.56 26.46C20.56 26.46 23.7 27.94 23.79 31.54" stroke="#3A3734" stroke-width="2" stroke-miterlimit="10" stroke-linecap="round" stroke-linejoin="round"/>
<path d="M12.4401 13.94C12.4401 13.94 22.5601 13.48 28.8101 18.48" stroke="#3A3734" stroke-width="2" stroke-miterlimit="10" stroke-linecap="round" stroke-linejoin="round"/>
<path d="M25.08 16.14C25.08 16.14 21.43 3.07 3.80005 13.57C3.80005 13.57 13.23 22.59 24.58 15.9" stroke="#3A3734" stroke-width="2" stroke-miterlimit="10" stroke-linecap="round" stroke-linejoin="round"/>
<path d="M34.03 15.26C34.03 15.26 37.55 21.22 37.68 27.22" stroke="#3A3734" stroke-width="2" stroke-miterlimit="10" stroke-linecap="round" stroke-linejoin="round"/>
<path d="M36.26 20.19C36.26 20.19 28.81 24.63 37.68 37.36C37.68 37.36 46.94 24.48 36.26 20.19Z" stroke="#3A3734" stroke-width="2" stroke-miterlimit="10" stroke-linecap="round" stroke-linejoin="round"/>
<path d="M36.68 12.85C36.68 12.85 30.74 8.22 25.89 6.47" stroke="#3A3734" stroke-width="2" stroke-miterlimit="10" stroke-linecap="round" stroke-linejoin="round"/>
<path d="M33.03 10.27C33.03 10.27 35.65 -0.779985 14.41 1.97001C14.41 1.97001 23.44 14.69 33.68 10.71" stroke="#3A3734" stroke-width="2" stroke-miterlimit="10" stroke-linecap="round" stroke-linejoin="round"/>
</svg>
